<?xml version="1.0" encoding="UTF-8"?><svg id="a" xmlns="http://www.w3.org/2000/svg" viewBox="0 0 179 49.53"><path d="M66.97,11.22c0-2.06-1.55-3.75-3.55-3.99v7.97c2-.23,3.55-1.93,3.55-3.99Z" style="fill:#1d1d1b;"/><path d="M58.93,11.22c0,2.06,1.55,3.75,3.55,3.99v-7.97c-2,.23-3.55,1.93-3.55,3.99Z" style="fill:#1d1d1b;"/><path d="M12.92,32.73c-.58.56-1.27.98-2.08,1.25s-1.64.41-2.51.41c-1.31,0-2.48-.24-3.51-.72-1.03-.48-1.91-1.11-2.62-1.91-.72-.79-1.26-1.71-1.64-2.76-.37-1.05-.56-2.16-.56-3.32,0-1.29.22-2.47.66-3.54.44-1.07,1.03-1.99,1.79-2.75.76-.76,1.64-1.35,2.65-1.78,1.01-.43,2.09-.64,3.23-.64,1.06,0,1.97.17,2.73.5s1.38.74,1.86,1.22v3.93c-.42-.58-.96-1.06-1.62-1.44-.67-.37-1.47-.56-2.4-.56-.79,0-1.5.14-2.12.44-.62.29-1.14.68-1.56,1.16s-.73,1.03-.95,1.64-.33,1.24-.33,1.89c0,.52.09,1.07.28,1.65.19.58.48,1.12.89,1.62.41.5.93.91,1.56,1.23.64.32,1.39.48,2.26.48.94,0,1.74-.19,2.4-.56.67-.37,1.2-.86,1.59-1.47,0,0,0,4.03,0,4.03ZM13.89,18.87c0-.52.19-.97.58-1.34.38-.37.84-.56,1.36-.56s1,.19,1.39.58.58.85.58,1.39v13.49c0,.17-.02.31-.05.42-.03.11-.07.22-.11.33v.03c-.17.35-.41.64-.72.86-.31.22-.68.33-1.09.33-.54,0-1-.18-1.37-.55-.37-.36-.56-.82-.56-1.36v-13.61h0Z" style="fill:#1d1d1b;"/><path d="M19.89,19.96c-.21-.35-.31-.71-.31-1.06,0-.56.21-1.03.62-1.4l.03-.03c.33-.31.76-.47,1.28-.47.48,0,.89.16,1.25.47l.03.03c.08.06.19.18.31.34l2.97,4.71,2.94-4.62c.06-.06.12-.13.17-.22.05-.08.11-.16.17-.22l.03-.03c.33-.31.75-.47,1.25-.47s.94.16,1.25.47l.06.03c.37.37.57.81.59,1.31v.13c-.04.35-.14.67-.28.94l-.09.16-9.52,13.45-.06.09c-.13.25-.35.45-.67.61-.32.16-.63.23-.92.23-.52,0-.97-.19-1.36-.56-.38-.37-.58-.83-.58-1.37,0-.25.04-.46.11-.62.07-.17.17-.36.3-.59l4.24-5.99-3.72-5.21-.09-.09h0ZM29.03,26.11l3.72,5.24c.23.29.34.64.34,1.03v.16c-.04.52-.24.96-.61,1.33-.37.37-.82.55-1.36.55-.35,0-.67-.08-.95-.25-.28-.17-.51-.4-.7-.69l-2.68-4.15,2.25-3.22h0ZM29,17.93l.06-.13s-.03.04-.03.06-.01.04-.03.06h0ZM32.25,19.87l-.5.69.47-.62.03-.06h0Z" style="fill:#1d1d1b;"/><path d="M41.3,34.41c-1.19-.06-2.28-.34-3.28-.84s-1.86-1.15-2.57-1.95c-.72-.8-1.28-1.71-1.68-2.72s-.61-2.06-.61-3.17.2-2.2.61-3.23.97-1.94,1.7-2.73c.73-.79,1.59-1.44,2.57-1.94.99-.5,2.08-.78,3.26-.84v3.34c-.65.06-1.22.21-1.72.45-.5.24-.92.54-1.26.89-.34.35-.61.74-.81,1.16s-.32.81-.36,1.19h4.15v2.97h-4.21c.04.6.19,1.15.44,1.64.25.49.57.91.97,1.25s.83.61,1.31.81.98.32,1.5.36v3.37h0ZM42.24,17c1.14.06,2.21.33,3.2.81.99.48,1.85,1.09,2.57,1.84s1.3,1.6,1.72,2.54c.42.95.62,1.92.62,2.92-.04.52-.24.96-.61,1.33-.37.37-.82.55-1.36.55h-6.15v-2.97h4.21c-.04-.37-.16-.77-.36-1.19-.2-.42-.47-.8-.83-1.16s-.79-.66-1.3-.92c-.51-.26-1.09-.41-1.73-.45v-3.31h0ZM45.55,29.23l.06-.06c.17-.23.39-.43.67-.59.28-.17.59-.25.92-.25.5,0,.95.19,1.36.58.41.38.61.85.61,1.39s-.23,1.06-.69,1.56c-.46.5-1.03.94-1.72,1.31-.69.37-1.44.68-2.25.91-.81.23-1.57.34-2.28.34v-3.37c.77-.04,1.43-.22,1.97-.55.54-.32.99-.74,1.34-1.26h0Z" style="fill:#1d1d1b;"/><path d="M56.38,13.09v19.42c-.02.54-.22.99-.59,1.34-.37.35-.82.53-1.34.53s-1-.18-1.37-.53c-.37-.35-.57-.8-.59-1.34V13.09c.04-.52.24-.96.61-1.33.36-.36.82-.55,1.36-.55s.96.18,1.33.55c.36.37.57.81.61,1.33h0Z" style="fill:#1d1d1b;"/><path d="M97.37,18.84v13.67c-.02.54-.22.99-.59,1.34-.37.35-.83.53-1.37.53s-.97-.18-1.34-.53c-.37-.35-.57-.8-.59-1.34v-13.67c.04-.54.24-.99.61-1.34.36-.35.82-.53,1.36-.53s.96.18,1.33.55c.36.37.57.81.61,1.33h0ZM104.01,32.45v-7.56c0-.46-.04-.94-.13-1.45-.08-.51-.24-.97-.47-1.37-.23-.41-.55-.74-.97-1.02-.42-.27-.97-.41-1.65-.41-.58,0-1.08.1-1.48.31-.41.21-.75.46-1.02.75v-3.53c.42-.31.92-.59,1.51-.84.59-.25,1.3-.37,2.11-.37.42,0,.86.05,1.34.16.48.1.94.28,1.39.51.45.24.87.56,1.26.97.4.41.73.92,1,1.54.25-.42.55-.82.89-1.2s.74-.72,1.19-1.02.95-.52,1.5-.7c.55-.18,1.16-.27,1.83-.27s1.43.11,2.22.34c.79.23,1.5.67,2.12,1.31.37.4.68.79.92,1.17s.42.82.55,1.3.21,1.03.27,1.64.08,1.34.08,2.17v7.56c0,.54-.19,1-.58,1.37-.38.37-.85.56-1.39.56s-1.03-.2-1.4-.59c-.37-.4-.56-.84-.56-1.34v-7.4c0-.48-.04-.98-.11-1.5s-.22-.99-.44-1.42c-.22-.43-.54-.78-.97-1.06-.43-.28-.99-.42-1.7-.42s-1.28.13-1.72.39c-.44.26-.78.59-1.03,1-.25.41-.42.86-.51,1.36-.1.5-.14,1-.14,1.5v7.43c0,.56-.18,1.05-.53,1.45-.35.41-.83.61-1.44.61-.54,0-1-.19-1.37-.56-.37-.37-.56-.83-.56-1.37h0Z" style="fill:#1d1d1b;"/><path d="M131.86,33.17c-.44.37-.97.67-1.59.89s-1.4.33-2.34.33c-1.35,0-2.44-.23-3.26-.69-.82-.46-1.47-1.03-1.94-1.73-.47-.7-.78-1.46-.94-2.28-.16-.82-.23-1.59-.23-2.29v-8.46c0-.54.19-1,.56-1.39s.83-.58,1.37-.58.99.18,1.36.55c.36.37.57.82.61,1.36v7.55c0,.6.06,1.17.17,1.7.11.53.31.99.58,1.37s.64.69,1.11.91c.47.22,1.05.33,1.73.33s1.23-.09,1.68-.28c.46-.19.83-.46,1.12-.81v3.53h0ZM136.73,18.84l-.03,13.67c-.02.54-.21.99-.58,1.34-.37.35-.82.53-1.36.53s-.99-.18-1.36-.53-.57-.79-.61-1.31v-13.71c.04-.52.25-.96.62-1.33.37-.36.82-.55,1.34-.55s.97.18,1.34.53c.37.35.58.8.62,1.34h0Z" style="fill:#1d1d1b;"/><path d="M143.19,13.09v19.42c-.02.54-.22.99-.59,1.34-.37.35-.82.53-1.34.53s-1-.18-1.37-.53-.57-.8-.59-1.34V13.09c.04-.52.24-.96.61-1.33.36-.36.82-.55,1.36-.55s.96.18,1.33.55c.36.37.57.81.61,1.33Z" style="fill:#1d1d1b;"/><path d="M149.44,13.09v19.42c-.02.54-.22.99-.59,1.34-.37.35-.82.53-1.34.53s-1-.18-1.37-.53-.57-.8-.59-1.34V13.09c.04-.52.24-.96.61-1.33.36-.36.82-.55,1.36-.55s.96.18,1.33.55c.36.37.57.81.61,1.33Z" style="fill:#1d1d1b;"/><path d="M158.68,34.41c-1.19-.06-2.28-.34-3.28-.84-1-.5-1.86-1.15-2.57-1.95-.72-.8-1.28-1.71-1.69-2.72s-.61-2.06-.61-3.17.2-2.2.61-3.23.97-1.94,1.7-2.73c.73-.79,1.59-1.44,2.57-1.94.99-.5,2.08-.78,3.26-.84v3.34c-.65.06-1.22.21-1.72.45-.5.24-.92.54-1.26.89-.34.35-.61.74-.81,1.16s-.32.81-.36,1.19h4.15v2.97h-4.21c.04.6.19,1.15.44,1.64.25.49.57.91.97,1.25.4.34.83.61,1.31.81.48.2.98.32,1.5.36v3.37ZM159.61,17c1.14.06,2.21.33,3.2.81.99.48,1.85,1.09,2.57,1.84s1.3,1.6,1.72,2.54c.42.95.62,1.92.62,2.92-.04.52-.24.96-.61,1.33-.36.37-.82.55-1.36.55h-6.15v-2.97h4.21c-.04-.37-.16-.77-.36-1.19-.2-.42-.47-.8-.83-1.16s-.79-.66-1.3-.92c-.51-.26-1.09-.41-1.73-.45v-3.31h0ZM162.92,29.23l.06-.06c.17-.23.39-.43.67-.59.28-.17.59-.25.92-.25.5,0,.95.19,1.36.58s.61.85.61,1.39-.23,1.06-.69,1.56c-.46.5-1.03.94-1.72,1.31-.69.37-1.44.68-2.25.91-.81.23-1.57.34-2.28.34v-3.37c.77-.04,1.43-.22,1.97-.55.54-.32.99-.74,1.34-1.26h0Z" style="fill:#1d1d1b;"/><path d="M173.78,18.84l-.03,13.67c-.02.54-.22.99-.59,1.36-.37.37-.82.55-1.34.55s-.99-.18-1.36-.55c-.37-.36-.57-.81-.61-1.33v-13.71c.04-.48.24-.91.61-1.28.36-.37.82-.56,1.36-.56s.99.17,1.36.51c.36.34.57.79.61,1.33h0ZM174.72,18.12c.23-.21.5-.39.81-.55.31-.16.65-.29,1.03-.39h.06c.17-.04.31-.06.44-.06.4,0,.74.1,1.03.3.29.2.52.44.69.73l.03.06c.13.25.19.53.19.84,0,.5-.17.93-.5,1.3s-.76.57-1.28.61c-1.1.1-1.94.47-2.5,1.09v-3.93h0Z" style="fill:#1d1d1b;"/><path d="M80.19,22.48c-.43,1.19-.79,2.37-1.09,3.59.32-1.21.68-2.4,1.09-3.59Z" style="fill:#1d1d1b;"/><path d="M101.2.91c-.36-.5-.94-.81-1.55-.89-1.21-.16-2.22.51-3.12,1.21-.26.2-.52.4-.77.61-2.71,2.18-5.14,4.7-7.25,7.45-2.13,2.78-3.97,5.81-5.43,8.99-1.59,3.46-2.78,7.12-3.51,10.86-1.01,5.17-1.1,10.45-1.08,15.7,0,1.03-.05,2.09.2,3.1.25.79,1.13,1.43,1.93.92.44-.29.69-.81.79-1.33.2-1.01.16-2.08.2-3.1.04-1.1.09-2.2.16-3.29.16-2.57.39-5.15.82-7.7.28-1.68.66-3.35,1.16-4.97,1.42-4.64,3.65-9.04,6.28-13.11,2.4-3.72,5.45-7.04,9.08-9.6.91-.64,1.81-1.37,2.27-2.42.34-.78.34-1.75-.16-2.44h0Z" style="fill:#1d1d1b;"/><circle cx="126.71" cy="13.67" r="1.86" style="fill:#1d1d1b;"/><circle cx="132.02" cy="13.67" r="1.86" style="fill:#1d1d1b;"/><path d="M79.07,26.23c.14-.56.3-1.11.46-1.65.21-.7.43-1.4.67-2.09.69-2,1.55-3.91,2.47-5.81-3.63-.95-7.26-1.89-10.9-2.84,2.26-3.02,5.4-5.37,8.94-6.69.35-.13.71-.26.99-.51s.45-.66.31-1c-.18-.44-.75-.56-1.22-.57-2.96-.07-5.69,1.55-8.04,3.37-2.65,2.05-5.08,4.46-6.82,7.33-1.15,1.89-2,4.05-1.92,6.27.14,3.57,2.92,6.81,6.37,7.74.51.14,1.05.23,1.57.13s1.03-.41,1.23-.9c.33-.77-.19-1.67-.88-2.15-.69-.48-1.53-.68-2.27-1.06-1.25-.65-2.21-1.86-2.55-3.22-.35-1.37-.09-2.88.7-4.05,3.18,2.01,6.55,3.7,10.05,5.06-1.82,2.7-3.46,5.56-4.6,8.61-.17.47-.34.96-.27,1.46.07.49.46.98.96.99.78.02,1.12-.96,1.26-1.73.58-3.16,1.7-6.22,3.3-9.01-1.38,3.69-2.56,7.46-3.38,11.32-.11.53-.22,1.1-.05,1.62s.73.95,1.25.79c.64-.19.77-1.02.8-1.69.13-2.84.62-5.62,1.25-8.39l.32-1.31h0Z" style="fill:#1d1d1b;"/><path d="M88.3,38.77v-1.14h6.4v1.14h-2.6v10.53h-1.19v-10.53h-2.61Z" style="fill:#1d1d1b;"/><path d="M103.97,40.66v8.64h-1.1v-1.48c-.47.57-.99.99-1.57,1.28-.58.29-1.21.43-1.9.43-1.22,0-2.27-.44-3.13-1.33-.87-.89-1.3-1.97-1.3-3.24s.44-2.31,1.31-3.19,1.92-1.33,3.15-1.33c.71,0,1.35.15,1.92.45.57.3,1.08.75,1.51,1.36v-1.59h1.1ZM99.53,41.51c-.62,0-1.19.15-1.71.46s-.94.73-1.25,1.28-.46,1.13-.46,1.75.16,1.19.47,1.75c.31.56.73.99,1.26,1.3.52.31,1.09.46,1.69.46s1.18-.15,1.73-.46.96-.72,1.26-1.24c.29-.52.44-1.11.44-1.77,0-1-.33-1.83-.99-2.51s-1.47-1.01-2.43-1.01h0Z" style="fill:#1d1d1b;"/><path d="M113.74,46.44l.94.49c-.31.6-.66,1.09-1.06,1.46-.4.37-.86.65-1.36.84s-1.07.29-1.71.29c-1.41,0-2.51-.46-3.3-1.38-.79-.92-1.19-1.97-1.19-3.13,0-1.1.34-2.07,1.01-2.93.85-1.09,1.99-1.64,3.43-1.64s2.65.56,3.53,1.67c.62.79.94,1.77.95,2.95h-7.77c.02,1,.34,1.83.96,2.47s1.39.96,2.3.96c.44,0,.87-.08,1.28-.23.41-.15.77-.36,1.06-.61.29-.25.61-.66.95-1.22h0ZM113.74,44.11c-.15-.59-.37-1.07-.65-1.42s-.66-.64-1.13-.86-.96-.33-1.47-.33c-.85,0-1.58.27-2.19.82-.44.4-.78.99-1.01,1.79h6.44Z" style="fill:#1d1d1b;"/><path d="M117.03,37.33h1.11v6.82l4-3.49h1.63l-4.75,4.12,5.02,4.52h-1.56l-4.35-3.89v3.89h-1.11v-11.97Z" style="fill:#1d1d1b;"/><path d="M124.03,40.66h1.14l2.65,6.27,2.76-6.27h.2l2.77,6.27,2.7-6.27h1.16l-3.75,8.64h-.21l-2.76-6.18-2.76,6.18h-.21l-3.69-8.64h0Z" style="fill:#1d1d1b;"/><path d="M142.8,40.44c1.33,0,2.43.48,3.31,1.45.79.88,1.19,1.92,1.19,3.12s-.42,2.26-1.26,3.16-1.92,1.35-3.24,1.35-2.41-.45-3.25-1.35-1.26-1.96-1.26-3.16.4-2.23,1.19-3.11c.87-.97,1.98-1.45,3.32-1.45h0ZM142.79,41.53c-.92,0-1.72.34-2.38,1.02s-1,1.51-1,2.48c0,.62.15,1.21.45,1.75.3.54.71.96,1.23,1.25.51.29,1.08.44,1.7.44s1.18-.15,1.7-.44c.51-.29.92-.71,1.23-1.25.3-.54.45-1.12.45-1.75,0-.97-.33-1.79-1-2.48s-1.46-1.02-2.38-1.02h0Z" style="fill:#1d1d1b;"/><path d="M149.36,40.66h1.11v1.55c.44-.59.94-1.04,1.48-1.33s1.13-.44,1.76-.44,1.22.16,1.72.49.87.77,1.11,1.33c.24.56.36,1.42.36,2.6v4.45h-1.11v-4.12c0-1-.04-1.66-.12-1.99-.13-.57-.38-1-.74-1.29s-.84-.43-1.43-.43c-.67,0-1.27.22-1.81.67s-.88,1-1.05,1.65c-.11.43-.16,1.21-.16,2.35v3.17h-1.11v-8.64h0Z" style="fill:#1d1d1b;"/><path d="M167.89,37.33v11.97h-1.1v-1.48c-.47.57-.99.99-1.57,1.28-.58.29-1.21.43-1.9.43-1.22,0-2.27-.44-3.13-1.33-.87-.89-1.3-1.97-1.3-3.24s.44-2.31,1.31-3.19,1.92-1.33,3.15-1.33c.71,0,1.35.15,1.92.45.57.3,1.08.75,1.51,1.36v-4.92h1.1ZM163.45,41.51c-.62,0-1.19.15-1.71.46s-.94.73-1.25,1.28-.46,1.13-.46,1.75.16,1.19.47,1.75c.31.56.73.99,1.26,1.3s1.09.46,1.69.46,1.18-.15,1.73-.46.96-.72,1.26-1.24.44-1.11.44-1.77c0-1-.33-1.83-.99-2.51s-1.47-1.01-2.43-1.01h0Z" style="fill:#1d1d1b;"/><path d="M174.5,40.44c1.33,0,2.43.48,3.31,1.45.79.88,1.19,1.92,1.19,3.12s-.42,2.26-1.26,3.16-1.92,1.35-3.24,1.35-2.41-.45-3.25-1.35-1.26-1.96-1.26-3.16.4-2.23,1.19-3.11c.87-.97,1.98-1.45,3.32-1.45h0ZM174.49,41.53c-.92,0-1.72.34-2.38,1.02s-1,1.51-1,2.48c0,.62.15,1.21.45,1.75.3.54.71.96,1.23,1.25.51.29,1.08.44,1.7.44s1.18-.15,1.7-.44c.51-.29.92-.71,1.23-1.25.3-.54.45-1.12.45-1.75,0-.97-.33-1.79-1-2.48s-1.46-1.02-2.38-1.02h0Z" style="fill:#1d1d1b;"/></svg>